<?xml version="1.0" standalone="no"?>
<!DOCTYPE svg PUBLIC "-//W3C//DTD SVG 20010904//EN"
 "http://www.w3.org/TR/2001/REC-SVG-20010904/DTD/svg10.dtd">
<svg version="1.0" xmlns="http://www.w3.org/2000/svg"
 width="512.000000pt" height="512.000000pt" viewBox="0 0 512.000000 512.000000"
 preserveAspectRatio="xMidYMid meet" color="red">
<metadata>
Created by potrace 1.16, written by Peter Selinger 2001-2019
</metadata>
<g transform="translate(0.000000,512.000000) scale(0.100000,-0.100000)"
fill="#000000" stroke="none">
<path d="M1155 5106 c-144 -46 -252 -159 -289 -301 -14 -52 -16 -278 -16
-2002 l0 -1942 -37 -6 c-164 -25 -283 -108 -344 -239 -41 -88 -51 -167 -47
-377 l3 -181 33 -29 32 -29 1858 0 c1744 0 1858 1 1878 18 41 32 44 53 44 265
0 173 -3 215 -19 266 -51 163 -176 273 -343 302 l-68 11 0 419 0 419 70 0 c63
0 73 -3 102 -29 l33 -29 5 -169 c5 -155 7 -172 31 -223 55 -115 159 -183 283
-184 39 0 90 6 113 12 83 24 180 121 205 205 10 33 13 362 13 1587 0 1357 -2
1548 -15 1566 -8 11 -119 123 -247 247 -227 223 -232 227 -273 227 -34 0 -48
-6 -76 -34 -28 -28 -34 -41 -34 -77 0 -42 3 -45 190 -234 l190 -190 -176 -175
c-96 -96 -182 -187 -190 -202 -21 -40 -20 -401 2 -483 42 -165 193 -298 354
-312 l60 -6 0 -896 c0 -583 -4 -909 -10 -933 -28 -98 -155 -106 -191 -11 -5
13 -9 87 -9 163 0 118 -3 148 -21 196 -28 75 -89 140 -164 175 -53 25 -72 29
-152 29 l-93 0 0 1428 c0 1584 5 1468 -65 1577 -55 85 -133 146 -229 178 -45
16 -152 17 -1200 16 -901 0 -1160 -3 -1191 -13z m2191 -431 c65 -27 64 -11 64
-728 0 -433 -4 -654 -11 -675 -6 -17 -23 -39 -37 -49 -26 -17 -77 -18 -1019
-18 l-993 0 -32 33 -33 32 0 669 c0 731 -2 705 59 735 46 23 1948 24 2002 1z"/>
</g>
</svg>
